Coordinates
version=1
nRows=34
nColumns=19
inDegrees=yes

Units are S.I. units (second, meters, Newtons, ...)
If the header above contains a line with 'inDegrees', this indicates whether rotational values are in degrees (yes) or radians (no).

endheader
time	pelvis_tilt	pelvis_list	pelvis_rotation	pelvis_tx	pelvis_ty	pelvis_tz	hip_flexion_r	hip_adduction_r	hip_rotation_r	knee_angle_r	knee_angle_r_beta	ankle_angle_r	hip_flexion_l	hip_adduction_l	hip_rotation_l	knee_angle_l	knee_angle_l_beta	ankle_angle_l
     13.80666667	      9.02550589	      5.34899479	      2.70773405	      1.94434429	      0.86464010	      0.97443391	    -21.83183650	     -9.66692494	    -15.83837931	     74.51849943	      1.30059317	    -13.36259986	     18.68102151	      8.78556049	      1.63732786	     18.57404289	      0.32417820	     -3.86444842
     13.81333333	      9.57632382	      5.75152669	      3.38648479	      1.94324831	      0.86249001	      0.97332945	    -20.17753758	    -10.34922697	    -16.11817034	     79.39186164	      1.38564938	    -12.95603379	     17.66288185	      9.20183654	     -0.04441550	     20.63662419	      0.36017704	     -3.44837911
     13.82000000	      9.41420453	      5.86072420	      4.21423954	      1.94188986	      0.85930907	      0.97217559	    -17.53171504	    -10.75342097	    -16.30890195	     84.14676549	      1.46863811	    -12.46862378	     17.62475412	      9.27452745	     -1.47355691	     23.42404038	      0.40882663	     -2.48257566
     13.82666667	      9.60590127	      6.15702118	      5.11468682	      1.94032411	      0.85613074	      0.97113153	    -15.31408644	    -11.44597636	    -16.79929852	     88.52075742	      1.54497867	    -11.91581336	     17.12300194	      9.47694060	     -2.53099053	     26.37742164	      0.46037286	     -1.08441503
     13.83333333	      9.73422651	      6.44974565	      6.07845710	      1.93846815	      0.85268425	      0.97013169	    -12.93933787	    -12.21791922	    -17.33330836	     92.59653871	      1.61611448	    -11.27627890	     16.64301995	      9.66357903	     -3.09308909	     29.47602919	      0.51445376	      0.74843430
     13.84000000	      9.64549328	      6.69070707	      7.02546860	      1.93636530	      0.84898262	      0.96921764	    -10.16469293	    -13.05444562	    -17.75067340	     96.39702710	      1.68244551	    -10.59870628	     16.31966368	      9.82789567	     -3.16855540	     32.59214538	      0.56884025	      2.97592342
     13.84666667	      9.61743607	      6.97402991	      7.96928342	      1.93396303	      0.84544248	      0.96833103	     -7.35869586	    -14.01587484	    -18.11522869	     99.82051151	      1.74219659	     -9.88089492	     15.76702769	     10.07506155	     -2.75502334	     35.52506426	      0.62002934	      5.49755845
     13.85333333	      9.40528227	      7.17503439	      8.75230916	      1.93126978	      0.84198669	      0.96760421	     -4.06944432	    -14.97079507	    -18.12984019	    102.92517676	      1.79638322	     -9.21139996	     15.26875375	     10.28016311	     -2.05553622	     38.23114257	      0.66725931	      8.14969963
     13.86000000	      9.74897161	      7.58765180	      9.32756881	      1.92846204	      0.83952938	      0.96712336	     -1.32712891	    -16.10624191	    -17.95857615	    105.49447798	      1.84122598	     -8.50220091	     13.81957262	     10.59693231	     -1.23971746	     40.39278926	      0.70498717	     10.85464106
     13.86666667	      9.15592268	      7.62075876	      9.76524323	      1.92554915	      0.83665613	      0.96662988	      2.89973342	    -16.92501793	    -17.26517897	    107.78939083	      1.88127977	     -8.03839846	     13.31791861	     10.67785265	     -0.30397691	     42.35749651	      0.73927778	     13.45954153
     13.87333333	      9.16732279	      7.85959920	      9.93443388	      1.92270378	      0.83503260	      0.96639078	      6.51182715	    -17.80006311	    -16.34601409	    109.47228183	      1.91065176	     -7.61507017	     11.74257250	     10.81584501	      0.54508028	     43.62106608	      0.76133123	     15.90781271
     13.88000000	      9.63304899	      8.02551981	     10.08571823	      1.92007573	      0.83457370	      0.96619620	      9.52649228	    -18.41911124	    -15.54213459	    110.44673187	      1.92765912	     -7.24037040	      9.35148328	     10.77204407	      1.55340218	     44.34573592	      0.77397910	     18.19439603
     13.88666667	      9.64528533	      8.22928550	      9.66797523	      1.91778864	      0.83433194	      0.96642518	     13.40796014	    -18.87860552	    -13.90854387	    111.06888693	      1.93851777	     -7.00712133	      7.13438265	     10.71134402	      1.88056604	     44.40021790	      0.77492999	     19.89852402
     13.89333333	      9.86969329	      8.07711357	      9.76933310	      1.91566440	      0.83492924	      0.96599520	     16.58331979	    -18.92422520	    -13.11291559	    110.91079378	      1.93575853	     -6.75616696	      4.53293870	     10.33895134	      2.91206347	     44.21661639	      0.77172554	     21.36971378
     13.90000000	     10.17516800	      8.18782773	      8.93614674	      1.91425331	      0.83623539	      0.96632267	     19.93087411	    -18.84122781	    -11.30978211	    110.36303685	      1.92619837	     -6.64930015	      1.36113714	     10.06355154	      2.72833099	     43.03664404	      0.75113114	     22.10506594
     13.90666667	     10.42422623	      8.03289791	      8.40522878	      1.91326734	      0.83807062	      0.96615532	     22.88112947	    -18.44552368	    -10.07128996	    109.17041435	      1.90538318	     -6.58532396	     -1.92424635	      9.59620197	      2.86858258	     41.51300776	      0.72453867	     22.35427745
     13.91333333	     11.22680732	      7.84354109	      7.94470309	      1.91276688	      0.84095417	      0.96566554	     24.69016498	    -17.99465455	     -9.29603093	    107.34823642	      1.87358017	     -6.32682914	     -6.13489126	      9.05262778	      3.14006103	     39.34576431	      0.68671313	     22.01854855
     13.92000000	     11.42138675	      7.51613640	      7.44264589	      1.91283848	      0.84347791	      0.96508429	     26.96867922	    -17.33962756	     -8.48697880	    105.18218087	      1.83577537	     -6.02831448	     -9.78629345	      8.48130802	      3.14294779	     36.89682179	      0.64397102	     21.01453225
     13.92666667	     12.04250227	      7.00709910	      7.27018528	      1.91334197	      0.84684469	      0.96393408	     28.13006538	    -16.72796835	     -8.47801846	    102.41687211	      1.78751163	     -5.72683020	    -14.06046965	      7.63510936	      3.44103376	     34.01673454	      0.59370402	     19.32897294
     13.93333333	     12.19187606	      6.43216132	      7.12229832	      1.91434300	      0.84985396	      0.96274134	     29.55370672	    -16.06635405	     -8.53082946	     99.34415798	      1.73388265	     -5.37361410	    -17.85115857	      6.79404974	      3.58730849	     30.95377505	      0.54024529	     16.97579483
     13.94000000	     12.09134024	      5.73843017	      7.12184414	      1.91571038	      0.85271494	      0.96135640	     30.89253305	    -15.42001466	     -8.91062927	     95.91412285	      1.67401724	     -4.96776463	    -21.30718414	      5.82604334	      3.69136278	     27.83195887	      0.48575932	     13.95894478
     13.94666667	     11.56153168	      5.01421111	      7.15941334	      1.91737555	      0.85510931	      0.96011651	     32.48073610	    -14.77111034	     -9.38162591	     92.24305995	      1.60994511	     -4.54869434	    -24.16335374	      4.86505507	      3.67541125	     24.78940371	      0.43265671	     10.42710981
     13.95333333	     10.66223683	      4.29531190	      7.27460953	      1.91928270	      0.85707129	      0.95895223	     34.20662326	    -14.19454854	     -9.98007846	     88.30811882	      1.54126743	     -4.05901696	    -26.38707871	      3.91762496	      3.57037682	     22.02414248	      0.38439380	      6.43875326
     13.96000000	      9.56795980	      3.25914300	      7.68029821	      1.92124407	      0.85905991	      0.95781560	     35.70488070	    -13.45625282	    -11.14665754	     83.90818127	      1.46447403	     -3.64220938	    -27.90385006	      2.51440130	      3.35543417	     19.92372879	      0.34773467	      2.30974836
     13.96666667	      8.03406104	      2.37112001	      7.90928690	      1.92328044	      0.86047152	      0.95717132	     37.57077941	    -12.70848123	    -12.00690617	     79.32480623	      1.38447905	     -3.21740592	    -28.58541111	      1.37235237	      2.89862374	     18.37709872	      0.32074088	     -1.91083259
     13.97333333	      6.51356556	      1.51772824	      8.02314427	      1.92523762	      0.86184268	      0.95700608	     39.19321054	    -11.79707539	    -12.73963978	     74.44929400	      1.29938531	     -2.82399263	    -28.87784899	      0.27877044	      2.22950201	     17.43625803	      0.30432011	     -6.06703961
     13.98000000	      5.14196464	      0.74280035	      7.92681699	      1.92707577	      0.86327267	      0.95742600	     40.45206937	    -10.63588582	    -13.16578594	     69.30651951	      1.20962696	     -2.49960219	    -28.96174978	     -0.69054020	      1.33960586	     17.09548627	      0.29837252	     -9.98588916
     13.98666667	      4.08026391	      0.10347429	      7.63828920	      1.92867418	      0.86483285	      0.95837055	     41.17684331	     -9.24081033	    -13.18403766	     63.94657554	      1.11607829	     -2.23596222	    -28.91867585	     -1.53403141	      0.12331377	     17.56592984	      0.30658331	    -13.56574372
     13.99333333	      3.40701883	     -0.52374454	      7.10852369	      1.93004914	      0.86658892	      0.95988869	     41.24243280	     -7.41411180	    -12.71382968	     58.33225652	      1.01808994	     -2.09584400	    -28.83323999	     -2.35253666	     -1.40940659	     18.91180993	      0.33007335	    -16.39977866
     14.00000000	      3.09872305	     -1.04811054	      6.50886846	      1.93108593	      0.86847355	      0.96174306	     40.66246436	     -5.40572580	    -11.72626078	     52.57266806	      0.91756615	     -2.09444407	    -28.64929116	     -3.15501425	     -3.05366405	     21.20093208	      0.37002607	    -18.52118151
     14.00666667	      3.05547070	     -1.53135811	      5.89317622	      1.93200014	      0.87031849	      0.96374829	     39.51508776	     -3.33745761	    -10.37281000	     46.76890551	      0.81627139	     -2.30297729	    -28.30272174	     -4.02600419	     -4.74471722	     24.37709006	      0.42546048	    -19.95828998
     14.01333333	      3.18012383	     -1.94532203	      5.20490694	      1.93269585	      0.87180505	      0.96595561	     37.98146257	     -1.25677225	     -8.53312552	     41.10839681	      0.71747687	     -2.75157060	    -27.71799203	     -4.92216396	     -6.44706621	     28.44274875	      0.49641961	    -20.64098652
     14.02000000	      3.28466150	     -2.34179389	      4.46489089	      1.93332423	      0.87266766	      0.96819583	     36.30333414	      0.71170892	     -6.45981446	     35.77029723	      0.62430946	     -3.47454503	    -26.79195984	     -5.86572703	     -8.03817115	     33.21229837	      0.57966396	    -20.74872914
     14.02666667	      3.61733128	     -2.73203174	      3.83524455	      1.93377741	      0.87325327	      0.97024536	     34.25500680	      2.43528296	     -4.51710216	     30.90123260	      0.53932825	     -4.42378799	    -25.87334188	     -6.85790715	     -9.16254991	     38.42354957	      0.67061745	    -20.26455248
